<?xml version="1.0" encoding="UTF-8" standalone="no"?>
<svg width="33.8667mm" height="33.6021mm"
 viewBox="163 31 128 127"
 xmlns="http://www.w3.org/2000/svg" xmlns:xlink="http://www.w3.org/1999/xlink"  version="1.2" baseProfile="tiny">
<title>FX Draw</title>
<desc>Efofex Encoded SVG</desc>
<defs>
</defs>
<g fill="none" stroke="black" stroke-width="1" fill-rule="evenodd" stroke-linecap="square" stroke-linejoin="bevel" >

<g fill="none" stroke="none" transform="matrix(1,0,0,1,0,0)"
font-family="Efofex" font-size="14.6667" font-weight="400" font-style="normal" 
>
<path vector-effect="none" fill-rule="evenodd" d="M283.465,94.4882 L283.417,96.826 L283.276,99.1397 L283.044,101.428 L282.722,103.688 L282.312,105.918 L281.816,108.117 L281.235,110.283 L280.572,112.414 L279.828,114.508 L279.006,116.564 L278.106,118.579 L277.132,120.551 L276.084,122.48 L274.964,124.362 L273.775,126.197 L272.518,127.982 L271.195,129.715 L269.807,131.395 L268.358,133.02 L266.847,134.588 L265.278,136.098 L263.652,137.547 L261.971,138.933 L260.237,140.255 L258.451,141.511 L256.616,142.699 L254.733,143.818 L252.803,144.864 L250.83,145.838 L248.815,146.736 L246.759,147.557 L244.664,148.3 L242.532,148.962 L240.366,149.541 L238.166,150.036 L235.935,150.444 L233.675,150.765 L231.386,150.996 L229.072,151.135 L226.772,151.181 L224.434,151.134 L222.12,150.993 L219.832,150.761 L217.572,150.439 L215.342,150.028 L213.142,149.532 L210.976,148.952 L208.846,148.289 L206.751,147.545 L204.696,146.722 L202.681,145.823 L200.709,144.848 L198.78,143.8 L196.898,142.681 L195.063,141.492 L193.278,140.234 L191.545,138.911 L189.865,137.524 L188.24,136.074 L186.671,134.564 L185.162,132.995 L183.713,131.369 L182.327,129.688 L181.005,127.953 L179.749,126.168 L178.561,124.332 L177.442,122.449 L176.395,120.52 L175.422,118.547 L174.524,116.531 L173.702,114.475 L172.96,112.38 L172.298,110.249 L171.719,108.082 L171.224,105.883 L170.815,103.652 L170.495,101.391 L170.264,99.1029 L170.125,96.7888 L170.079,94.4882 L170.126,92.1504 L170.267,89.8366 L170.499,87.5488 L170.821,85.2887 L171.231,83.0582 L171.728,80.859 L172.308,78.693 L172.971,76.5621 L173.715,74.468 L174.537,72.4126 L175.437,70.3977 L176.412,68.4252 L177.46,66.4968 L178.579,64.6144 L179.768,62.7798 L181.025,60.9948 L182.349,59.2613 L183.736,57.5812 L185.186,55.9561 L186.696,54.3879 L188.265,52.8786 L189.891,51.4298 L191.572,50.0434 L193.306,48.7213 L195.092,47.4653 L196.928,46.2772 L198.811,45.1588 L200.74,44.1119 L202.713,43.1384 L204.729,42.2402 L206.785,41.4189 L208.879,40.6765 L211.011,40.0148 L213.177,39.4356 L215.377,38.9407 L217.608,38.532 L219.869,38.2113 L222.157,37.9804 L224.471,37.8411 L226.772,37.7953 L229.109,37.8426 L231.423,37.9834 L233.711,38.2157 L235.971,38.5379 L238.202,38.948 L240.401,39.4442 L242.567,40.0248 L244.698,40.6878 L246.792,41.4314 L248.847,42.2539 L250.862,43.1534 L252.835,44.1281 L254.763,45.1761 L256.645,46.2956 L258.48,47.4849 L260.265,48.742 L261.998,50.0651 L263.679,51.4525 L265.304,52.9022 L266.872,54.4126 L268.381,55.9816 L269.83,57.6076 L271.216,59.2887 L272.538,61.023 L273.795,62.8087 L274.983,64.6441 L276.101,66.5273 L277.148,68.4564 L278.121,70.4296 L279.02,72.4452 L279.841,74.5012 L280.583,76.5959 L281.245,78.7274 L281.824,80.8939 L282.319,83.0936 L282.728,85.3246 L283.049,87.5852 L283.279,89.8735 L283.419,92.1876 L283.465,94.4882"/>
<path vector-effect="none" fill-rule="evenodd" d="M283.465,94.4882 L283.417,96.826 L283.276,99.1397 L283.044,101.428 L282.722,103.688 L282.312,105.918 L281.816,108.117 L281.235,110.283 L280.572,112.414 L279.828,114.508 L279.006,116.564 L278.106,118.579 L277.132,120.551 L276.084,122.48 L274.964,124.362 L273.775,126.197 L272.518,127.982 L271.195,129.715 L269.807,131.395 L268.358,133.02 L266.847,134.588 L265.278,136.098 L263.652,137.547 L261.971,138.933 L260.237,140.255 L258.451,141.511 L256.616,142.699 L254.733,143.818 L252.803,144.864 L250.83,145.838 L248.815,146.736 L246.759,147.557 L244.664,148.3 L242.532,148.962 L240.366,149.541 L238.166,150.036 L235.935,150.444 L233.675,150.765 L231.386,150.996 L229.072,151.135 L226.772,151.181 L224.434,151.134 L222.12,150.993 L219.832,150.761 L217.572,150.439 L215.342,150.028 L213.142,149.532 L210.976,148.952 L208.846,148.289 L206.751,147.545 L204.696,146.722 L202.681,145.823 L200.709,144.848 L198.78,143.8 L196.898,142.681 L195.063,141.492 L193.278,140.234 L191.545,138.911 L189.865,137.524 L188.24,136.074 L186.671,134.564 L185.162,132.995 L183.713,131.369 L182.327,129.688 L181.005,127.953 L179.749,126.168 L178.561,124.332 L177.442,122.449 L176.395,120.52 L175.422,118.547 L174.524,116.531 L173.702,114.475 L172.96,112.38 L172.298,110.249 L171.719,108.082 L171.224,105.883 L170.815,103.652 L170.495,101.391 L170.264,99.1029 L170.125,96.7888 L170.079,94.4882 L170.126,92.1504 L170.267,89.8366 L170.499,87.5488 L170.821,85.2887 L171.231,83.0582 L171.728,80.859 L172.308,78.693 L172.971,76.5621 L173.715,74.468 L174.537,72.4126 L175.437,70.3977 L176.412,68.4252 L177.46,66.4968 L178.579,64.6144 L179.768,62.7798 L181.025,60.9948 L182.349,59.2613 L183.736,57.5812 L185.186,55.9561 L186.696,54.3879 L188.265,52.8786 L189.891,51.4298 L191.572,50.0434 L193.306,48.7213 L195.092,47.4653 L196.928,46.2772 L198.811,45.1588 L200.74,44.1119 L202.713,43.1384 L204.729,42.2402 L206.785,41.4189 L208.879,40.6765 L211.011,40.0148 L213.177,39.4356 L215.377,38.9407 L217.608,38.532 L219.869,38.2113 L222.157,37.9804 L224.471,37.8411 L226.772,37.7953 L229.109,37.8426 L231.423,37.9834 L233.711,38.2157 L235.971,38.5379 L238.202,38.948 L240.401,39.4442 L242.567,40.0248 L244.698,40.6878 L246.792,41.4314 L248.847,42.2539 L250.862,43.1534 L252.835,44.1281 L254.763,45.1761 L256.645,46.2956 L258.48,47.4849 L260.265,48.742 L261.998,50.0651 L263.679,51.4525 L265.304,52.9022 L266.872,54.4126 L268.381,55.9816 L269.83,57.6076 L271.216,59.2887 L272.538,61.023 L273.795,62.8087 L274.983,64.6441 L276.101,66.5273 L277.148,68.4564 L278.121,70.4296 L279.02,72.4452 L279.841,74.5012 L280.583,76.5959 L281.245,78.7274 L281.824,80.8939 L282.319,83.0936 L282.728,85.3246 L283.049,87.5852 L283.279,89.8735 L283.419,92.1876 L283.465,94.4882"/>
</g>

<g fill="none" stroke="#000000" stroke-opacity="1" stroke-width="1.33333" stroke-linecap="square" stroke-linejoin="bevel" transform="matrix(1,0,0,1,0,0)"
font-family="Efofex" font-size="14.6667" font-weight="400" font-style="normal" 
>
<polyline fill="none" vector-effect="none" points="283.465,94.4882 283.417,96.826 283.276,99.1397 283.044,101.428 282.722,103.688 282.312,105.918 281.816,108.117 281.235,110.283 280.572,112.414 279.828,114.508 279.006,116.564 278.106,118.579 277.132,120.551 276.084,122.48 274.964,124.362 273.775,126.197 272.518,127.982 271.195,129.715 269.807,131.395 268.358,133.02 266.847,134.588 265.278,136.098 263.652,137.547 261.971,138.933 260.237,140.255 258.451,141.511 256.616,142.699 254.733,143.818 252.803,144.864 250.83,145.838 248.815,146.736 246.759,147.557 244.664,148.3 242.532,148.962 240.366,149.541 238.166,150.036 235.935,150.444 233.675,150.765 231.386,150.996 229.072,151.135 226.772,151.181 224.434,151.134 222.12,150.993 219.832,150.761 217.572,150.439 215.342,150.028 213.142,149.532 210.976,148.952 208.846,148.289 206.751,147.545 204.696,146.722 202.681,145.823 200.709,144.848 198.78,143.8 196.898,142.681 195.063,141.492 193.278,140.234 191.545,138.911 189.865,137.524 188.24,136.074 186.671,134.564 185.162,132.995 183.713,131.369 182.327,129.688 181.005,127.953 179.749,126.168 178.561,124.332 177.442,122.449 176.395,120.52 175.422,118.547 174.524,116.531 173.702,114.475 172.96,112.38 172.298,110.249 171.719,108.082 171.224,105.883 170.815,103.652 170.495,101.391 170.264,99.1029 170.125,96.7888 170.079,94.4882 170.126,92.1504 170.267,89.8366 170.499,87.5488 170.821,85.2887 171.231,83.0582 171.728,80.859 172.308,78.693 172.971,76.5621 173.715,74.468 174.537,72.4126 175.437,70.3977 176.412,68.4252 177.46,66.4968 178.579,64.6144 179.768,62.7798 181.025,60.9948 182.349,59.2613 183.736,57.5812 185.186,55.9561 186.696,54.3879 188.265,52.8786 189.891,51.4298 191.572,50.0434 193.306,48.7213 195.092,47.4653 196.928,46.2772 198.811,45.1588 200.74,44.1119 202.713,43.1384 204.729,42.2402 206.785,41.4189 208.879,40.6765 211.011,40.0148 213.177,39.4356 215.377,38.9407 217.608,38.532 219.869,38.2113 222.157,37.9804 224.471,37.8411 226.772,37.7953 229.109,37.8426 231.423,37.9834 233.711,38.2157 235.971,38.5379 238.202,38.948 240.401,39.4442 242.567,40.0248 244.698,40.6878 246.792,41.4314 248.847,42.2539 250.862,43.1534 252.835,44.1281 254.763,45.1761 256.645,46.2956 258.48,47.4849 260.265,48.742 261.998,50.0651 263.679,51.4525 265.304,52.9022 266.872,54.4126 268.381,55.9816 269.83,57.6076 271.216,59.2887 272.538,61.023 273.795,62.8087 274.983,64.6441 276.101,66.5273 277.148,68.4564 278.121,70.4296 279.02,72.4452 279.841,74.5012 280.583,76.5959 281.245,78.7274 281.824,80.8939 282.319,83.0936 282.728,85.3246 283.049,87.5852 283.279,89.8735 283.419,92.1876 283.465,94.4882 " />
</g>

<g fill="#000000" fill-opacity="1" stroke="#000000" stroke-opacity="1" stroke-width="1" stroke-linecap="square" stroke-linejoin="bevel" transform="matrix(1,0,0,1,0,0)"
font-family="Efofex" font-size="14.6667" font-weight="400" font-style="normal" 
>
<circle cx="226.772" cy="94.4882" r="1.51181"/>
</g>

<g fill="none" stroke="#000000" stroke-opacity="1" stroke-dasharray="1.33333,2.66667" stroke-dashoffset="0" stroke-width="1.33333" stroke-linecap="square" stroke-linejoin="bevel" transform="matrix(1,0,0,1,0,0)"
font-family="Efofex" font-size="14.6667" font-weight="400" font-style="normal" 
>
<polyline fill="none" vector-effect="none" points="226.772,94.4882 283.465,94.4882 " />
</g>

<g fill="#000000" fill-opacity="1" stroke="#000000" stroke-opacity="1" stroke-width="1" stroke-linecap="square" stroke-linejoin="bevel" transform="matrix(1,0,0,1,0,0)"
font-family="Times New Roman" font-size="9.33333" font-weight="400" font-style="normal" 
>
</g>

<g fill="#000000" fill-opacity="1" stroke="#000000" stroke-opacity="1" stroke-width="1" stroke-linecap="square" stroke-linejoin="bevel" transform="matrix(1,0,0,1,255,89)"
font-family="Times New Roman" font-size="9.33333" font-weight="400" font-style="normal" 
>
<text fill="#000000" fill-opacity="1" stroke="none" xml:space="preserve" x="-19.5" y="3.03125" font-family="Times New Roman" font-size="9.33333" font-weight="400" font-style="normal" 
 >r = 100 cm</text>
</g>

<g fill="#000000" fill-opacity="1" stroke="#000000" stroke-opacity="1" stroke-width="1" stroke-linecap="square" stroke-linejoin="bevel" transform="matrix(1,0,0,1,0,0)"
font-family="Times New Roman" font-size="9.33333" font-weight="400" font-style="normal" 
>
</g>
</g>
</svg>
